<mxfile host="app.diagrams.net" agent="Mozilla/5.0 (Windows NT 10.0; Win64; x64) AppleWebKit/537.36 (KHTML, like Gecko) Chrome/134.0.0.0 Safari/537.36" modified="2025-03-14T09:34:47.622Z" version="24.3.1" etag="-WMxu-f0EyjlIJV15OpY" type="google">
  <diagram name="3нф" id="v53DYleLKBIu-j7vA8B8">
    <mxGraphModel grid="1" page="1" gridSize="10" guides="1" tooltips="1" connect="1" arrows="1" fold="1" pageScale="1" pageWidth="827" pageHeight="1169" math="0" shadow="0">
      <root>
        <mxCell id="0" />
        <mxCell id="1" parent="0" />
        <mxCell id="JrnTduP9p1m5AG0XrYTP-34" style="edgeStyle=orthogonalEdgeStyle;rounded=0;orthogonalLoop=1;jettySize=auto;html=1;endArrow=ERoneToMany;endFill=0;startArrow=ERmandOne;startFill=0;" edge="1" parent="1" source="JrnTduP9p1m5AG0XrYTP-1" target="JrnTduP9p1m5AG0XrYTP-33">
          <mxGeometry relative="1" as="geometry" />
        </mxCell>
        <mxCell id="JrnTduP9p1m5AG0XrYTP-36" value="Управляет" style="edgeLabel;html=1;align=center;verticalAlign=middle;resizable=0;points=[];fontSize=9;" connectable="0" vertex="1" parent="JrnTduP9p1m5AG0XrYTP-34">
          <mxGeometry x="-0.3505" y="-1" relative="1" as="geometry">
            <mxPoint as="offset" />
          </mxGeometry>
        </mxCell>
        <mxCell id="JrnTduP9p1m5AG0XrYTP-1" value="Пользователь" style="swimlane;fontStyle=0;childLayout=stackLayout;horizontal=1;startSize=26;fillColor=none;horizontalStack=0;resizeParent=1;resizeParentMax=0;resizeLast=0;collapsible=1;marginBottom=0;whiteSpace=wrap;html=1;rounded=1;" vertex="1" parent="1">
          <mxGeometry x="60" y="60" width="130" height="104" as="geometry" />
        </mxCell>
        <mxCell id="JrnTduP9p1m5AG0XrYTP-2" value="*E-mail" style="text;strokeColor=none;fillColor=none;align=left;verticalAlign=top;spacingLeft=4;spacingRight=4;overflow=hidden;rotatable=0;points=[[0,0.5],[1,0.5]];portConstraint=eastwest;whiteSpace=wrap;html=1;" vertex="1" parent="JrnTduP9p1m5AG0XrYTP-1">
          <mxGeometry y="26" width="130" height="26" as="geometry" />
        </mxCell>
        <mxCell id="JrnTduP9p1m5AG0XrYTP-3" value="Имя пользователя" style="text;strokeColor=none;fillColor=none;align=left;verticalAlign=top;spacingLeft=4;spacingRight=4;overflow=hidden;rotatable=0;points=[[0,0.5],[1,0.5]];portConstraint=eastwest;whiteSpace=wrap;html=1;" vertex="1" parent="JrnTduP9p1m5AG0XrYTP-1">
          <mxGeometry y="52" width="130" height="26" as="geometry" />
        </mxCell>
        <mxCell id="JrnTduP9p1m5AG0XrYTP-4" value="Пароль" style="text;strokeColor=none;fillColor=none;align=left;verticalAlign=top;spacingLeft=4;spacingRight=4;overflow=hidden;rotatable=0;points=[[0,0.5],[1,0.5]];portConstraint=eastwest;whiteSpace=wrap;html=1;" vertex="1" parent="JrnTduP9p1m5AG0XrYTP-1">
          <mxGeometry y="78" width="130" height="26" as="geometry" />
        </mxCell>
        <mxCell id="JrnTduP9p1m5AG0XrYTP-22" style="edgeStyle=orthogonalEdgeStyle;rounded=0;orthogonalLoop=1;jettySize=auto;html=1;endArrow=ERoneToMany;endFill=0;startArrow=ERmandOne;startFill=0;" edge="1" parent="1" source="JrnTduP9p1m5AG0XrYTP-5" target="JrnTduP9p1m5AG0XrYTP-28">
          <mxGeometry relative="1" as="geometry">
            <mxPoint x="460" y="365" as="targetPoint" />
          </mxGeometry>
        </mxCell>
        <mxCell id="JrnTduP9p1m5AG0XrYTP-26" value="Включено" style="edgeLabel;html=1;align=center;verticalAlign=middle;resizable=0;points=[];fontSize=9;" connectable="0" vertex="1" parent="JrnTduP9p1m5AG0XrYTP-22">
          <mxGeometry x="-0.0269" y="-1" relative="1" as="geometry">
            <mxPoint as="offset" />
          </mxGeometry>
        </mxCell>
        <mxCell id="JrnTduP9p1m5AG0XrYTP-5" value="Устройство" style="swimlane;fontStyle=0;childLayout=stackLayout;horizontal=1;startSize=26;fillColor=none;horizontalStack=0;resizeParent=1;resizeParentMax=0;resizeLast=0;collapsible=1;marginBottom=0;whiteSpace=wrap;html=1;rounded=1;" vertex="1" parent="1">
          <mxGeometry x="570" y="300" width="160" height="110" as="geometry" />
        </mxCell>
        <mxCell id="JrnTduP9p1m5AG0XrYTP-7" value="&lt;div&gt;&lt;div&gt;*ID устройства&lt;/div&gt;&lt;/div&gt;&lt;div&gt;Имя устройства&lt;/div&gt;Название типа устройства&lt;div&gt;Статус устройства&lt;/div&gt;&lt;div&gt;Режим энергосбережения&lt;br&gt;&lt;div&gt;&lt;br&gt;&lt;/div&gt;&lt;div&gt;&lt;br&gt;&lt;/div&gt;&lt;/div&gt;" style="text;strokeColor=none;fillColor=none;align=left;verticalAlign=top;spacingLeft=4;spacingRight=4;overflow=hidden;rotatable=0;points=[[0,0.5],[1,0.5]];portConstraint=eastwest;whiteSpace=wrap;html=1;" vertex="1" parent="JrnTduP9p1m5AG0XrYTP-5">
          <mxGeometry y="26" width="160" height="84" as="geometry" />
        </mxCell>
        <mxCell id="JrnTduP9p1m5AG0XrYTP-35" style="edgeStyle=orthogonalEdgeStyle;rounded=0;orthogonalLoop=1;jettySize=auto;html=1;startArrow=ERmandOne;startFill=0;endArrow=ERoneToMany;endFill=0;" edge="1" parent="1" source="JrnTduP9p1m5AG0XrYTP-9" target="JrnTduP9p1m5AG0XrYTP-33">
          <mxGeometry relative="1" as="geometry" />
        </mxCell>
        <mxCell id="JrnTduP9p1m5AG0XrYTP-37" value="Содержит" style="edgeLabel;html=1;align=center;verticalAlign=middle;resizable=0;points=[];fontSize=9;" connectable="0" vertex="1" parent="JrnTduP9p1m5AG0XrYTP-35">
          <mxGeometry x="-0.3683" y="1" relative="1" as="geometry">
            <mxPoint as="offset" />
          </mxGeometry>
        </mxCell>
        <mxCell id="JrnTduP9p1m5AG0XrYTP-9" value="Дом" style="swimlane;fontStyle=0;childLayout=stackLayout;horizontal=1;startSize=26;fillColor=none;horizontalStack=0;resizeParent=1;resizeParentMax=0;resizeLast=0;collapsible=1;marginBottom=0;whiteSpace=wrap;html=1;rounded=1;" vertex="1" parent="1">
          <mxGeometry x="330" y="60" width="140" height="124" as="geometry" />
        </mxCell>
        <mxCell id="JrnTduP9p1m5AG0XrYTP-11" value="&lt;div&gt;*Имя дома&lt;br&gt;&lt;/div&gt;&lt;span style=&quot;background-color: initial;&quot;&gt;Устройство&lt;/span&gt;&lt;div&gt;Комната&lt;/div&gt;&lt;div&gt;Сценарий&lt;/div&gt;&lt;div&gt;&lt;br&gt;&lt;/div&gt;" style="text;strokeColor=none;fillColor=none;align=left;verticalAlign=top;spacingLeft=4;spacingRight=4;overflow=hidden;rotatable=0;points=[[0,0.5],[1,0.5]];portConstraint=eastwest;whiteSpace=wrap;html=1;" vertex="1" parent="JrnTduP9p1m5AG0XrYTP-9">
          <mxGeometry y="26" width="140" height="98" as="geometry" />
        </mxCell>
        <mxCell id="Z_nvDFwN4MzSbAzOAyJW-1" style="edgeStyle=orthogonalEdgeStyle;rounded=0;orthogonalLoop=1;jettySize=auto;html=1;entryX=0;entryY=0.318;entryDx=0;entryDy=0;entryPerimeter=0;exitX=1;exitY=0.405;exitDx=0;exitDy=0;exitPerimeter=0;endArrow=ERmandOne;endFill=0;startArrow=ERzeroToMany;startFill=0;" edge="1" parent="1" source="JrnTduP9p1m5AG0XrYTP-13" target="Z_nvDFwN4MzSbAzOAyJW-12">
          <mxGeometry relative="1" as="geometry">
            <mxPoint x="860" y="122" as="targetPoint" />
          </mxGeometry>
        </mxCell>
        <mxCell id="Z_nvDFwN4MzSbAzOAyJW-23" value="Имеет" style="edgeLabel;html=1;align=center;verticalAlign=middle;resizable=0;points=[];labelBackgroundColor=#66FF66;" connectable="0" vertex="1" parent="Z_nvDFwN4MzSbAzOAyJW-1">
          <mxGeometry x="0.0318" y="-1" relative="1" as="geometry">
            <mxPoint as="offset" />
          </mxGeometry>
        </mxCell>
        <mxCell id="JrnTduP9p1m5AG0XrYTP-12" value="Комната" style="swimlane;fontStyle=0;childLayout=stackLayout;horizontal=1;startSize=26;fillColor=none;horizontalStack=0;resizeParent=1;resizeParentMax=0;resizeLast=0;collapsible=1;marginBottom=0;whiteSpace=wrap;html=1;rounded=1;" vertex="1" parent="1">
          <mxGeometry x="580" y="67" width="150" height="110" as="geometry" />
        </mxCell>
        <mxCell id="JrnTduP9p1m5AG0XrYTP-13" value="*Имя комнаты&lt;br&gt;&lt;div&gt;&lt;span style=&quot;background-color: initial;&quot;&gt;Название типа комнаты&lt;/span&gt;&lt;/div&gt;&lt;div&gt;Название иконки&lt;/div&gt;&lt;div&gt;&lt;div&gt;&lt;br&gt;&lt;/div&gt;&lt;/div&gt;" style="text;strokeColor=none;fillColor=none;align=left;verticalAlign=top;spacingLeft=4;spacingRight=4;overflow=hidden;rotatable=0;points=[[0,0.5],[1,0.5]];portConstraint=eastwest;whiteSpace=wrap;html=1;" vertex="1" parent="JrnTduP9p1m5AG0XrYTP-12">
          <mxGeometry y="26" width="150" height="84" as="geometry" />
        </mxCell>
        <mxCell id="Z_nvDFwN4MzSbAzOAyJW-3" style="edgeStyle=orthogonalEdgeStyle;rounded=0;orthogonalLoop=1;jettySize=auto;html=1;endArrow=ERoneToMany;endFill=0;startArrow=ERmandOne;startFill=0;" edge="1" parent="1" source="JrnTduP9p1m5AG0XrYTP-15">
          <mxGeometry relative="1" as="geometry">
            <mxPoint x="250" y="760" as="targetPoint" />
            <Array as="points">
              <mxPoint x="155" y="690" />
              <mxPoint x="155" y="690" />
            </Array>
          </mxGeometry>
        </mxCell>
        <mxCell id="Z_nvDFwN4MzSbAzOAyJW-9" value="Имеет" style="edgeLabel;html=1;align=center;verticalAlign=middle;resizable=0;points=[];labelBackgroundColor=#66FF66;" connectable="0" vertex="1" parent="Z_nvDFwN4MzSbAzOAyJW-3">
          <mxGeometry x="0.1059" y="-1" relative="1" as="geometry">
            <mxPoint as="offset" />
          </mxGeometry>
        </mxCell>
        <mxCell id="JrnTduP9p1m5AG0XrYTP-15" value="Сценарий" style="swimlane;fontStyle=0;childLayout=stackLayout;horizontal=1;startSize=26;fillColor=none;horizontalStack=0;resizeParent=1;resizeParentMax=0;resizeLast=0;collapsible=1;marginBottom=0;whiteSpace=wrap;html=1;rounded=1;" vertex="1" parent="1">
          <mxGeometry x="90" y="460" width="130" height="140" as="geometry" />
        </mxCell>
        <mxCell id="JrnTduP9p1m5AG0XrYTP-17" value="&lt;div&gt;*Имя сценария&lt;/div&gt;&lt;div&gt;&lt;span style=&quot;background-color: initial;&quot;&gt;День недели вкл&lt;/span&gt;&lt;/div&gt;&lt;div&gt;&lt;span style=&quot;background-color: initial;&quot;&gt;Время вкл&lt;/span&gt;&lt;/div&gt;&lt;div&gt;&lt;span style=&quot;background-color: initial;&quot;&gt;Время выкл&lt;/span&gt;&lt;/div&gt;&lt;div&gt;Комната&amp;nbsp;&lt;span style=&quot;background-color: initial;&quot;&gt;устройства&lt;/span&gt;&lt;/div&gt;Статус устройства&lt;div&gt;Статус сценария&amp;nbsp;&lt;div&gt;&lt;br&gt;&lt;/div&gt;&lt;/div&gt;" style="text;strokeColor=none;fillColor=none;align=left;verticalAlign=top;spacingLeft=4;spacingRight=4;overflow=hidden;rotatable=0;points=[[0,0.5],[1,0.5]];portConstraint=eastwest;whiteSpace=wrap;html=1;" vertex="1" parent="JrnTduP9p1m5AG0XrYTP-15">
          <mxGeometry y="26" width="130" height="114" as="geometry" />
        </mxCell>
        <mxCell id="JrnTduP9p1m5AG0XrYTP-20" style="edgeStyle=orthogonalEdgeStyle;rounded=0;orthogonalLoop=1;jettySize=auto;html=1;entryX=0;entryY=0.345;entryDx=0;entryDy=0;entryPerimeter=0;endArrow=ERzeroToMany;endFill=0;startArrow=ERmandOne;startFill=0;" edge="1" parent="1" source="JrnTduP9p1m5AG0XrYTP-9" target="JrnTduP9p1m5AG0XrYTP-13">
          <mxGeometry relative="1" as="geometry" />
        </mxCell>
        <mxCell id="JrnTduP9p1m5AG0XrYTP-24" value="Содержит" style="edgeLabel;html=1;align=center;verticalAlign=middle;resizable=0;points=[];fontSize=9;" connectable="0" vertex="1" parent="JrnTduP9p1m5AG0XrYTP-20">
          <mxGeometry x="0.0987" y="-1" relative="1" as="geometry">
            <mxPoint as="offset" />
          </mxGeometry>
        </mxCell>
        <mxCell id="JrnTduP9p1m5AG0XrYTP-21" style="edgeStyle=orthogonalEdgeStyle;rounded=0;orthogonalLoop=1;jettySize=auto;html=1;entryX=0.5;entryY=0;entryDx=0;entryDy=0;entryPerimeter=0;endArrow=ERzeroToMany;endFill=0;startArrow=ERmandOne;startFill=0;" edge="1" parent="1" target="JrnTduP9p1m5AG0XrYTP-5">
          <mxGeometry relative="1" as="geometry">
            <mxPoint x="650" y="180" as="sourcePoint" />
          </mxGeometry>
        </mxCell>
        <mxCell id="JrnTduP9p1m5AG0XrYTP-25" value="Имеет" style="edgeLabel;html=1;align=center;verticalAlign=middle;resizable=0;points=[];fontSize=9;" connectable="0" vertex="1" parent="JrnTduP9p1m5AG0XrYTP-21">
          <mxGeometry x="-0.1529" relative="1" as="geometry">
            <mxPoint as="offset" />
          </mxGeometry>
        </mxCell>
        <mxCell id="JrnTduP9p1m5AG0XrYTP-27" value="Устройство в сценарии" style="swimlane;fontStyle=0;childLayout=stackLayout;horizontal=1;startSize=26;fillColor=none;horizontalStack=0;resizeParent=1;resizeParentMax=0;resizeLast=0;collapsible=1;marginBottom=0;whiteSpace=wrap;html=1;rounded=1;" vertex="1" parent="1">
          <mxGeometry x="354" y="450" width="120" height="160" as="geometry" />
        </mxCell>
        <mxCell id="JrnTduP9p1m5AG0XrYTP-28" value="&lt;div&gt;*Имя сценария&lt;/div&gt;&lt;div&gt;*ID устройства&lt;/div&gt;" style="text;strokeColor=none;fillColor=none;align=left;verticalAlign=top;spacingLeft=4;spacingRight=4;overflow=hidden;rotatable=0;points=[[0,0.5],[1,0.5]];portConstraint=eastwest;whiteSpace=wrap;html=1;" vertex="1" parent="JrnTduP9p1m5AG0XrYTP-27">
          <mxGeometry y="26" width="120" height="134" as="geometry" />
        </mxCell>
        <mxCell id="JrnTduP9p1m5AG0XrYTP-30" style="edgeStyle=orthogonalEdgeStyle;rounded=0;orthogonalLoop=1;jettySize=auto;html=1;entryX=1;entryY=0.5;entryDx=0;entryDy=0;endArrow=ERmandOne;endFill=0;startArrow=ERoneToMany;startFill=0;" edge="1" parent="1" source="JrnTduP9p1m5AG0XrYTP-28" target="JrnTduP9p1m5AG0XrYTP-17">
          <mxGeometry relative="1" as="geometry" />
        </mxCell>
        <mxCell id="JrnTduP9p1m5AG0XrYTP-31" value="Содержит" style="edgeLabel;html=1;align=center;verticalAlign=middle;resizable=0;points=[];" connectable="0" vertex="1" parent="JrnTduP9p1m5AG0XrYTP-30">
          <mxGeometry x="0.1119" relative="1" as="geometry">
            <mxPoint as="offset" />
          </mxGeometry>
        </mxCell>
        <mxCell id="JrnTduP9p1m5AG0XrYTP-32" value="Управление домом" style="swimlane;fontStyle=0;childLayout=stackLayout;horizontal=1;startSize=26;fillColor=none;horizontalStack=0;resizeParent=1;resizeParentMax=0;resizeLast=0;collapsible=1;marginBottom=0;whiteSpace=wrap;html=1;rounded=1;" vertex="1" parent="1">
          <mxGeometry x="180" y="280" width="140" height="80" as="geometry" />
        </mxCell>
        <mxCell id="JrnTduP9p1m5AG0XrYTP-33" value="&lt;div&gt;*Имя дома&lt;br&gt;&lt;/div&gt;&lt;div&gt;*E-mail&lt;/div&gt;&lt;div&gt;&lt;br&gt;&lt;/div&gt;" style="text;strokeColor=none;fillColor=none;align=left;verticalAlign=top;spacingLeft=4;spacingRight=4;overflow=hidden;rotatable=0;points=[[0,0.5],[1,0.5]];portConstraint=eastwest;whiteSpace=wrap;html=1;" vertex="1" parent="JrnTduP9p1m5AG0XrYTP-32">
          <mxGeometry y="26" width="140" height="54" as="geometry" />
        </mxCell>
        <mxCell id="JrnTduP9p1m5AG0XrYTP-38" style="edgeStyle=orthogonalEdgeStyle;rounded=0;orthogonalLoop=1;jettySize=auto;html=1;entryX=0.011;entryY=0.289;entryDx=0;entryDy=0;entryPerimeter=0;exitX=0.716;exitY=1.004;exitDx=0;exitDy=0;exitPerimeter=0;endArrow=ERzeroToMany;endFill=0;startArrow=ERmandOne;startFill=0;" edge="1" parent="1" source="JrnTduP9p1m5AG0XrYTP-11" target="JrnTduP9p1m5AG0XrYTP-7">
          <mxGeometry relative="1" as="geometry">
            <mxPoint x="430" y="190" as="sourcePoint" />
          </mxGeometry>
        </mxCell>
        <mxCell id="JrnTduP9p1m5AG0XrYTP-39" value="Содержит" style="edgeLabel;html=1;align=center;verticalAlign=middle;resizable=0;points=[];fontSize=9;" connectable="0" vertex="1" parent="JrnTduP9p1m5AG0XrYTP-38">
          <mxGeometry x="0.4878" y="1" relative="1" as="geometry">
            <mxPoint as="offset" />
          </mxGeometry>
        </mxCell>
        <mxCell id="Z_nvDFwN4MzSbAzOAyJW-4" value="День недели в сценарии" style="swimlane;fontStyle=0;childLayout=stackLayout;horizontal=1;startSize=26;fillColor=#66FF66;horizontalStack=0;resizeParent=1;resizeParentMax=0;resizeLast=0;collapsible=1;marginBottom=0;whiteSpace=wrap;html=1;rounded=1;" vertex="1" parent="1">
          <mxGeometry x="250" y="710" width="156" height="90" as="geometry" />
        </mxCell>
        <mxCell id="Z_nvDFwN4MzSbAzOAyJW-5" value="&lt;div&gt;*Имя сценария&lt;/div&gt;&lt;div&gt;&lt;span style=&quot;background-color: initial;&quot;&gt;*День недели&amp;nbsp;&lt;/span&gt;&lt;br&gt;&lt;/div&gt;&lt;div&gt;&lt;div&gt;&lt;br&gt;&lt;/div&gt;&lt;/div&gt;" style="text;strokeColor=none;fillColor=#66FF66;align=left;verticalAlign=top;spacingLeft=4;spacingRight=4;overflow=hidden;rotatable=0;points=[[0,0.5],[1,0.5]];portConstraint=eastwest;whiteSpace=wrap;html=1;" vertex="1" parent="Z_nvDFwN4MzSbAzOAyJW-4">
          <mxGeometry y="26" width="156" height="64" as="geometry" />
        </mxCell>
        <mxCell id="Z_nvDFwN4MzSbAzOAyJW-6" value="День недели" style="swimlane;fontStyle=0;childLayout=stackLayout;horizontal=1;startSize=26;fillColor=#66FF66;horizontalStack=0;resizeParent=1;resizeParentMax=0;resizeLast=0;collapsible=1;marginBottom=0;whiteSpace=wrap;html=1;rounded=1;" vertex="1" parent="1">
          <mxGeometry x="510" y="710" width="130" height="90" as="geometry" />
        </mxCell>
        <mxCell id="Z_nvDFwN4MzSbAzOAyJW-7" value="&lt;div&gt;&lt;span style=&quot;background-color: initial;&quot;&gt;*День недели&amp;nbsp;&lt;/span&gt;&lt;/div&gt;&lt;div&gt;&lt;div&gt;&lt;br&gt;&lt;/div&gt;&lt;/div&gt;" style="text;strokeColor=none;fillColor=#66FF66;align=left;verticalAlign=top;spacingLeft=4;spacingRight=4;overflow=hidden;rotatable=0;points=[[0,0.5],[1,0.5]];portConstraint=eastwest;whiteSpace=wrap;html=1;" vertex="1" parent="Z_nvDFwN4MzSbAzOAyJW-6">
          <mxGeometry y="26" width="130" height="64" as="geometry" />
        </mxCell>
        <mxCell id="Z_nvDFwN4MzSbAzOAyJW-8" style="edgeStyle=orthogonalEdgeStyle;rounded=0;orthogonalLoop=1;jettySize=auto;html=1;entryX=0;entryY=0.297;entryDx=0;entryDy=0;entryPerimeter=0;startArrow=ERoneToMany;startFill=0;endArrow=ERmandOne;endFill=0;" edge="1" parent="1" source="Z_nvDFwN4MzSbAzOAyJW-4" target="Z_nvDFwN4MzSbAzOAyJW-7">
          <mxGeometry relative="1" as="geometry" />
        </mxCell>
        <mxCell id="Z_nvDFwN4MzSbAzOAyJW-10" value="Содержит" style="edgeLabel;html=1;align=center;verticalAlign=middle;resizable=0;points=[];labelBackgroundColor=#66FF66;" connectable="0" vertex="1" parent="Z_nvDFwN4MzSbAzOAyJW-8">
          <mxGeometry x="-0.0673" y="1" relative="1" as="geometry">
            <mxPoint as="offset" />
          </mxGeometry>
        </mxCell>
        <mxCell id="Z_nvDFwN4MzSbAzOAyJW-11" value="Тип комнаты" style="swimlane;fontStyle=0;childLayout=stackLayout;horizontal=1;startSize=26;fillColor=#66FF66;horizontalStack=0;resizeParent=1;resizeParentMax=0;resizeLast=0;collapsible=1;marginBottom=0;whiteSpace=wrap;html=1;rounded=1;labelBackgroundColor=none;labelBorderColor=none;" vertex="1" parent="1">
          <mxGeometry x="870" y="87" width="160" height="70" as="geometry" />
        </mxCell>
        <mxCell id="Z_nvDFwN4MzSbAzOAyJW-12" value="&lt;div&gt;&lt;div&gt;*Название типа комнаты&lt;/div&gt;&lt;/div&gt;" style="text;strokeColor=none;fillColor=#66FF66;align=left;verticalAlign=top;spacingLeft=4;spacingRight=4;overflow=hidden;rotatable=0;points=[[0,0.5],[1,0.5]];portConstraint=eastwest;whiteSpace=wrap;html=1;" vertex="1" parent="Z_nvDFwN4MzSbAzOAyJW-11">
          <mxGeometry y="26" width="160" height="44" as="geometry" />
        </mxCell>
        <mxCell id="Z_nvDFwN4MzSbAzOAyJW-13" value="Тип устройства" style="swimlane;fontStyle=0;childLayout=stackLayout;horizontal=1;startSize=26;fillColor=#66FF66;horizontalStack=0;resizeParent=1;resizeParentMax=0;resizeLast=0;collapsible=1;marginBottom=0;whiteSpace=wrap;html=1;rounded=1;labelBackgroundColor=#66FF66;" vertex="1" parent="1">
          <mxGeometry x="860" y="315" width="170" height="80" as="geometry" />
        </mxCell>
        <mxCell id="Z_nvDFwN4MzSbAzOAyJW-14" value="&lt;div&gt;&lt;div&gt;*Название типа устройства&lt;br&gt;&lt;/div&gt;&lt;/div&gt;" style="text;strokeColor=none;fillColor=#66FF66;align=left;verticalAlign=top;spacingLeft=4;spacingRight=4;overflow=hidden;rotatable=0;points=[[0,0.5],[1,0.5]];portConstraint=eastwest;whiteSpace=wrap;html=1;labelBackgroundColor=#66FF66;" vertex="1" parent="Z_nvDFwN4MzSbAzOAyJW-13">
          <mxGeometry y="26" width="170" height="54" as="geometry" />
        </mxCell>
        <mxCell id="Z_nvDFwN4MzSbAzOAyJW-21" style="edgeStyle=orthogonalEdgeStyle;rounded=0;orthogonalLoop=1;jettySize=auto;html=1;entryX=0;entryY=0.5;entryDx=0;entryDy=0;endArrow=ERmandOne;endFill=0;startArrow=ERzeroToMany;startFill=0;" edge="1" parent="1" source="JrnTduP9p1m5AG0XrYTP-7" target="Z_nvDFwN4MzSbAzOAyJW-14">
          <mxGeometry relative="1" as="geometry" />
        </mxCell>
        <mxCell id="Z_nvDFwN4MzSbAzOAyJW-22" value="Имеет" style="edgeLabel;html=1;align=center;verticalAlign=middle;resizable=0;points=[];labelBackgroundColor=#66FF66;" connectable="0" vertex="1" parent="Z_nvDFwN4MzSbAzOAyJW-21">
          <mxGeometry x="0.0663" y="-1" relative="1" as="geometry">
            <mxPoint as="offset" />
          </mxGeometry>
        </mxCell>
      </root>
    </mxGraphModel>
  </diagram>
</mxfile>
